<svg width="343" height="288" viewBox="0 0 343 288" fill="none" xmlns="http://www.w3.org/2000/svg">
<path d="M16.6989 14.2102V13.3409L20.5341 7.27273H21.1648V8.61932H20.7386L17.8409 13.2045V13.2727H23.0057V14.2102H16.6989ZM20.8068 16V13.946V13.5412V7.27273H21.8125V16H20.8068ZM27.4492 16.1193C26.8072 16.1193 26.2603 15.9446 25.8086 15.5952C25.3569 15.2429 25.0117 14.733 24.7731 14.0653C24.5344 13.3949 24.4151 12.5852 24.4151 11.6364C24.4151 10.6932 24.5344 9.88778 24.7731 9.22017C25.0146 8.54972 25.3612 8.03835 25.8129 7.68608C26.2674 7.33097 26.8129 7.15341 27.4492 7.15341C28.0856 7.15341 28.6296 7.33097 29.0813 7.68608C29.5359 8.03835 29.8825 8.54972 30.1211 9.22017C30.3626 9.88778 30.4833 10.6932 30.4833 11.6364C30.4833 12.5852 30.364 13.3949 30.1254 14.0653C29.8867 14.733 29.5415 15.2429 29.0898 15.5952C28.6381 15.9446 28.0913 16.1193 27.4492 16.1193ZM27.4492 15.1818C28.0856 15.1818 28.5799 14.875 28.9322 14.2614C29.2844 13.6477 29.4606 12.7727 29.4606 11.6364C29.4606 10.8807 29.3796 10.2372 29.2177 9.70597C29.0586 9.17472 28.8285 8.76989 28.5273 8.49148C28.229 8.21307 27.8697 8.07386 27.4492 8.07386C26.8185 8.07386 26.3256 8.38494 25.9705 9.0071C25.6154 9.62642 25.4379 10.5028 25.4379 11.6364C25.4379 12.392 25.5174 13.0341 25.6765 13.5625C25.8356 14.0909 26.0643 14.4929 26.3626 14.7685C26.6637 15.044 27.0259 15.1818 27.4492 15.1818ZM34.9492 16.1193C34.3072 16.1193 33.7603 15.9446 33.3086 15.5952C32.8569 15.2429 32.5117 14.733 32.2731 14.0653C32.0344 13.3949 31.9151 12.5852 31.9151 11.6364C31.9151 10.6932 32.0344 9.88778 32.2731 9.22017C32.5146 8.54972 32.8612 8.03835 33.3129 7.68608C33.7674 7.33097 34.3129 7.15341 34.9492 7.15341C35.5856 7.15341 36.1296 7.33097 36.5813 7.68608C37.0359 8.03835 37.3825 8.54972 37.6211 9.22017C37.8626 9.88778 37.9833 10.6932 37.9833 11.6364C37.9833 12.5852 37.864 13.3949 37.6254 14.0653C37.3867 14.733 37.0415 15.2429 36.5898 15.5952C36.1381 15.9446 35.5913 16.1193 34.9492 16.1193ZM34.9492 15.1818C35.5856 15.1818 36.0799 14.875 36.4322 14.2614C36.7844 13.6477 36.9606 12.7727 36.9606 11.6364C36.9606 10.8807 36.8796 10.2372 36.7177 9.70597C36.5586 9.17472 36.3285 8.76989 36.0273 8.49148C35.729 8.21307 35.3697 8.07386 34.9492 8.07386C34.3185 8.07386 33.8256 8.38494 33.4705 9.0071C33.1154 9.62642 32.9379 10.5028 32.9379 11.6364C32.9379 12.392 33.0174 13.0341 33.1765 13.5625C33.3356 14.0909 33.5643 14.4929 33.8626 14.7685C34.1637 15.044 34.5259 15.1818 34.9492 15.1818Z" fill="#9D9FA2"/>
<path d="M19.8523 76.1193C19.2898 76.1193 18.7884 76.0227 18.348 75.8295C17.9105 75.6364 17.5625 75.3679 17.304 75.0241C17.0483 74.6776 16.9091 74.2756 16.8864 73.8182H17.9602C17.983 74.0994 18.0795 74.3423 18.25 74.5469C18.4205 74.7486 18.6435 74.9048 18.919 75.0156C19.1946 75.1264 19.5 75.1818 19.8352 75.1818C20.2102 75.1818 20.5426 75.1165 20.8324 74.9858C21.1222 74.8551 21.3494 74.6733 21.5142 74.4403C21.679 74.2074 21.7614 73.9375 21.7614 73.6307C21.7614 73.3097 21.6818 73.027 21.5227 72.7827C21.3636 72.5355 21.1307 72.3423 20.8239 72.2031C20.517 72.0639 20.142 71.9943 19.6989 71.9943H19V71.0568H19.6989C20.0455 71.0568 20.3494 70.9943 20.6108 70.8693C20.875 70.7443 21.081 70.5682 21.2287 70.3409C21.3793 70.1136 21.4545 69.8466 21.4545 69.5398C21.4545 69.2443 21.3892 68.9872 21.2585 68.7685C21.1278 68.5497 20.9432 68.3793 20.7045 68.2571C20.4688 68.1349 20.1903 68.0739 19.8693 68.0739C19.5682 68.0739 19.2841 68.1293 19.017 68.2401C18.7528 68.348 18.5369 68.5057 18.3693 68.7131C18.2017 68.9176 18.1108 69.1648 18.0966 69.4545H17.0739C17.0909 68.9972 17.2287 68.5966 17.4872 68.2528C17.7457 67.9062 18.0838 67.6364 18.5014 67.4432C18.9219 67.25 19.3835 67.1534 19.8864 67.1534C20.4261 67.1534 20.8892 67.2628 21.2756 67.4815C21.6619 67.6974 21.9588 67.983 22.1662 68.3381C22.3736 68.6932 22.4773 69.0767 22.4773 69.4886C22.4773 69.9801 22.348 70.3991 22.0895 70.7457C21.8338 71.0923 21.4858 71.3324 21.0455 71.4659V71.5341C21.5966 71.625 22.027 71.8594 22.3366 72.2372C22.6463 72.6122 22.8011 73.0767 22.8011 73.6307C22.8011 74.1051 22.6719 74.5312 22.4134 74.9091C22.1577 75.2841 21.8082 75.5795 21.3651 75.7955C20.9219 76.0114 20.4176 76.1193 19.8523 76.1193ZM27.3906 76.1193C26.7486 76.1193 26.2017 75.9446 25.75 75.5952C25.2983 75.2429 24.9531 74.733 24.7145 74.0653C24.4759 73.3949 24.3565 72.5852 24.3565 71.6364C24.3565 70.6932 24.4759 69.8878 24.7145 69.2202C24.956 68.5497 25.3026 68.0384 25.7543 67.6861C26.2088 67.331 26.7543 67.1534 27.3906 67.1534C28.027 67.1534 28.571 67.331 29.0227 67.6861C29.4773 68.0384 29.8239 68.5497 30.0625 69.2202C30.304 69.8878 30.4247 70.6932 30.4247 71.6364C30.4247 72.5852 30.3054 73.3949 30.0668 74.0653C29.8281 74.733 29.483 75.2429 29.0312 75.5952C28.5795 75.9446 28.0327 76.1193 27.3906 76.1193ZM27.3906 75.1818C28.027 75.1818 28.5213 74.875 28.8736 74.2614C29.2259 73.6477 29.402 72.7727 29.402 71.6364C29.402 70.8807 29.321 70.2372 29.1591 69.706C29 69.1747 28.7699 68.7699 28.4688 68.4915C28.1705 68.2131 27.8111 68.0739 27.3906 68.0739C26.7599 68.0739 26.267 68.3849 25.9119 69.0071C25.5568 69.6264 25.3793 70.5028 25.3793 71.6364C25.3793 72.392 25.4588 73.0341 25.6179 73.5625C25.777 74.0909 26.0057 74.4929 26.304 74.7685C26.6051 75.044 26.9673 75.1818 27.3906 75.1818ZM34.8906 76.1193C34.2486 76.1193 33.7017 75.9446 33.25 75.5952C32.7983 75.2429 32.4531 74.733 32.2145 74.0653C31.9759 73.3949 31.8565 72.5852 31.8565 71.6364C31.8565 70.6932 31.9759 69.8878 32.2145 69.2202C32.456 68.5497 32.8026 68.0384 33.2543 67.6861C33.7088 67.331 34.2543 67.1534 34.8906 67.1534C35.527 67.1534 36.071 67.331 36.5227 67.6861C36.9773 68.0384 37.3239 68.5497 37.5625 69.2202C37.804 69.8878 37.9247 70.6932 37.9247 71.6364C37.9247 72.5852 37.8054 73.3949 37.5668 74.0653C37.3281 74.733 36.983 75.2429 36.5312 75.5952C36.0795 75.9446 35.5327 76.1193 34.8906 76.1193ZM34.8906 75.1818C35.527 75.1818 36.0213 74.875 36.3736 74.2614C36.7259 73.6477 36.902 72.7727 36.902 71.6364C36.902 70.8807 36.821 70.2372 36.6591 69.706C36.5 69.1747 36.2699 68.7699 35.9688 68.4915C35.6705 68.2131 35.3111 68.0739 34.8906 68.0739C34.2599 68.0739 33.767 68.3849 33.4119 69.0071C33.0568 69.6264 32.8793 70.5028 32.8793 71.6364C32.8793 72.392 32.9588 73.0341 33.1179 73.5625C33.277 74.0909 33.5057 74.4929 33.804 74.7685C34.1051 75.044 34.4673 75.1818 34.8906 75.1818Z" fill="#9D9FA2"/>
<path d="M16.9034 136V135.233L19.7841 132.08C20.1222 131.71 20.4006 131.389 20.6193 131.116C20.8381 130.841 21 130.582 21.1051 130.341C21.2131 130.097 21.267 129.841 21.267 129.574C21.267 129.267 21.1932 129.001 21.0455 128.777C20.9006 128.553 20.7017 128.379 20.4489 128.257C20.196 128.135 19.9119 128.074 19.5966 128.074C19.2614 128.074 18.9688 128.143 18.7188 128.283C18.4716 128.419 18.2798 128.611 18.1435 128.858C18.0099 129.105 17.9432 129.395 17.9432 129.727H16.9375C16.9375 129.216 17.0554 128.767 17.2912 128.381C17.527 127.994 17.848 127.693 18.2543 127.477C18.6634 127.261 19.1222 127.153 19.6307 127.153C20.142 127.153 20.5952 127.261 20.9901 127.477C21.3849 127.693 21.6946 127.984 21.919 128.351C22.1435 128.717 22.2557 129.125 22.2557 129.574C22.2557 129.895 22.1974 130.209 22.081 130.516C21.9673 130.82 21.7685 131.159 21.4844 131.534C21.2031 131.906 20.8125 132.361 20.3125 132.898L18.3523 134.994V135.062H22.4091V136H16.9034ZM27.0156 136.119C26.3736 136.119 25.8267 135.945 25.375 135.595C24.9233 135.243 24.5781 134.733 24.3395 134.065C24.1009 133.395 23.9815 132.585 23.9815 131.636C23.9815 130.693 24.1009 129.888 24.3395 129.22C24.581 128.55 24.9276 128.038 25.3793 127.686C25.8338 127.331 26.3793 127.153 27.0156 127.153C27.652 127.153 28.196 127.331 28.6477 127.686C29.1023 128.038 29.4489 128.55 29.6875 129.22C29.929 129.888 30.0497 130.693 30.0497 131.636C30.0497 132.585 29.9304 133.395 29.6918 134.065C29.4531 134.733 29.108 135.243 28.6562 135.595C28.2045 135.945 27.6577 136.119 27.0156 136.119ZM27.0156 135.182C27.652 135.182 28.1463 134.875 28.4986 134.261C28.8509 133.648 29.027 132.773 29.027 131.636C29.027 130.881 28.946 130.237 28.7841 129.706C28.625 129.175 28.3949 128.77 28.0938 128.491C27.7955 128.213 27.4361 128.074 27.0156 128.074C26.3849 128.074 25.892 128.385 25.5369 129.007C25.1818 129.626 25.0043 130.503 25.0043 131.636C25.0043 132.392 25.0838 133.034 25.2429 133.562C25.402 134.091 25.6307 134.493 25.929 134.768C26.2301 135.044 26.5923 135.182 27.0156 135.182ZM34.5156 136.119C33.8736 136.119 33.3267 135.945 32.875 135.595C32.4233 135.243 32.0781 134.733 31.8395 134.065C31.6009 133.395 31.4815 132.585 31.4815 131.636C31.4815 130.693 31.6009 129.888 31.8395 129.22C32.081 128.55 32.4276 128.038 32.8793 127.686C33.3338 127.331 33.8793 127.153 34.5156 127.153C35.152 127.153 35.696 127.331 36.1477 127.686C36.6023 128.038 36.9489 128.55 37.1875 129.22C37.429 129.888 37.5497 130.693 37.5497 131.636C37.5497 132.585 37.4304 133.395 37.1918 134.065C36.9531 134.733 36.608 135.243 36.1562 135.595C35.7045 135.945 35.1577 136.119 34.5156 136.119ZM34.5156 135.182C35.152 135.182 35.6463 134.875 35.9986 134.261C36.3509 133.648 36.527 132.773 36.527 131.636C36.527 130.881 36.446 130.237 36.2841 129.706C36.125 129.175 35.8949 128.77 35.5938 128.491C35.2955 128.213 34.9361 128.074 34.5156 128.074C33.8849 128.074 33.392 128.385 33.0369 129.007C32.6818 129.626 32.5043 130.503 32.5043 131.636C32.5043 132.392 32.5838 133.034 32.7429 133.562C32.902 134.091 33.1307 134.493 33.429 134.768C33.7301 135.044 34.0923 135.182 34.5156 135.182Z" fill="#9D9FA2"/>
<path d="M19.9716 187.273V196H18.9148V188.381H18.8636L16.733 189.795V188.722L18.9148 187.273H19.9716ZM25.3281 196.119C24.6861 196.119 24.1392 195.945 23.6875 195.595C23.2358 195.243 22.8906 194.733 22.652 194.065C22.4134 193.395 22.294 192.585 22.294 191.636C22.294 190.693 22.4134 189.888 22.652 189.22C22.8935 188.55 23.2401 188.038 23.6918 187.686C24.1463 187.331 24.6918 187.153 25.3281 187.153C25.9645 187.153 26.5085 187.331 26.9602 187.686C27.4148 188.038 27.7614 188.55 28 189.22C28.2415 189.888 28.3622 190.693 28.3622 191.636C28.3622 192.585 28.2429 193.395 28.0043 194.065C27.7656 194.733 27.4205 195.243 26.9688 195.595C26.517 195.945 25.9702 196.119 25.3281 196.119ZM25.3281 195.182C25.9645 195.182 26.4588 194.875 26.8111 194.261C27.1634 193.648 27.3395 192.773 27.3395 191.636C27.3395 190.881 27.2585 190.237 27.0966 189.706C26.9375 189.175 26.7074 188.77 26.4062 188.491C26.108 188.213 25.7486 188.074 25.3281 188.074C24.6974 188.074 24.2045 188.385 23.8494 189.007C23.4943 189.626 23.3168 190.503 23.3168 191.636C23.3168 192.392 23.3963 193.034 23.5554 193.562C23.7145 194.091 23.9432 194.493 24.2415 194.768C24.5426 195.044 24.9048 195.182 25.3281 195.182ZM32.8281 196.119C32.1861 196.119 31.6392 195.945 31.1875 195.595C30.7358 195.243 30.3906 194.733 30.152 194.065C29.9134 193.395 29.794 192.585 29.794 191.636C29.794 190.693 29.9134 189.888 30.152 189.22C30.3935 188.55 30.7401 188.038 31.1918 187.686C31.6463 187.331 32.1918 187.153 32.8281 187.153C33.4645 187.153 34.0085 187.331 34.4602 187.686C34.9148 188.038 35.2614 188.55 35.5 189.22C35.7415 189.888 35.8622 190.693 35.8622 191.636C35.8622 192.585 35.7429 193.395 35.5043 194.065C35.2656 194.733 34.9205 195.243 34.4688 195.595C34.017 195.945 33.4702 196.119 32.8281 196.119ZM32.8281 195.182C33.4645 195.182 33.9588 194.875 34.3111 194.261C34.6634 193.648 34.8395 192.773 34.8395 191.636C34.8395 190.881 34.7585 190.237 34.5966 189.706C34.4375 189.175 34.2074 188.77 33.9062 188.491C33.608 188.213 33.2486 188.074 32.8281 188.074C32.1974 188.074 31.7045 188.385 31.3494 189.007C30.9943 189.626 30.8168 190.503 30.8168 191.636C30.8168 192.392 30.8963 193.034 31.0554 193.562C31.2145 194.091 31.4432 194.493 31.7415 194.768C32.0426 195.044 32.4048 195.182 32.8281 195.182Z" fill="#9D9FA2"/>
<path d="M19.75 256.119C19.108 256.119 18.5611 255.945 18.1094 255.595C17.6577 255.243 17.3125 254.733 17.0739 254.065C16.8352 253.395 16.7159 252.585 16.7159 251.636C16.7159 250.693 16.8352 249.888 17.0739 249.22C17.3153 248.55 17.6619 248.038 18.1136 247.686C18.5682 247.331 19.1136 247.153 19.75 247.153C20.3864 247.153 20.9304 247.331 21.3821 247.686C21.8366 248.038 22.1832 248.55 22.4219 249.22C22.6634 249.888 22.7841 250.693 22.7841 251.636C22.7841 252.585 22.6648 253.395 22.4261 254.065C22.1875 254.733 21.8423 255.243 21.3906 255.595C20.9389 255.945 20.392 256.119 19.75 256.119ZM19.75 255.182C20.3864 255.182 20.8807 254.875 21.233 254.261C21.5852 253.648 21.7614 252.773 21.7614 251.636C21.7614 250.881 21.6804 250.237 21.5185 249.706C21.3594 249.175 21.1293 248.77 20.8281 248.491C20.5298 248.213 20.1705 248.074 19.75 248.074C19.1193 248.074 18.6264 248.385 18.2713 249.007C17.9162 249.626 17.7386 250.503 17.7386 251.636C17.7386 252.392 17.8182 253.034 17.9773 253.562C18.1364 254.091 18.3651 254.493 18.6634 254.768C18.9645 255.044 19.3267 255.182 19.75 255.182Z" fill="#9D9FA2"/>
<path d="M53.0073 275.455C52.9561 275.023 52.7488 274.688 52.3851 274.449C52.0215 274.21 51.5755 274.091 51.0471 274.091C50.6607 274.091 50.3226 274.153 50.0328 274.278C49.7459 274.403 49.5215 274.575 49.3596 274.794C49.2005 275.013 49.1209 275.261 49.1209 275.54C49.1209 275.773 49.1763 275.973 49.2871 276.141C49.4007 276.305 49.5456 276.443 49.7218 276.554C49.8979 276.662 50.0826 276.751 50.2757 276.822C50.4689 276.891 50.6465 276.946 50.8084 276.989L51.6948 277.227C51.9221 277.287 52.1749 277.369 52.4533 277.474C52.7346 277.58 53.003 277.723 53.2587 277.905C53.5172 278.084 53.7303 278.314 53.8979 278.595C54.0655 278.876 54.1493 279.222 54.1493 279.631C54.1493 280.102 54.0257 280.528 53.7786 280.909C53.5343 281.29 53.1763 281.592 52.7047 281.817C52.236 282.041 51.6664 282.153 50.9959 282.153C50.3709 282.153 49.8297 282.053 49.3723 281.851C48.9178 281.649 48.5598 281.368 48.2985 281.007C48.04 280.646 47.8936 280.227 47.8596 279.75H48.9505C48.9789 280.08 49.0897 280.352 49.2828 280.568C49.4789 280.781 49.726 280.94 50.0243 281.045C50.3255 281.148 50.6493 281.199 50.9959 281.199C51.3993 281.199 51.7615 281.134 52.0826 281.003C52.4036 280.869 52.6578 280.685 52.8453 280.449C53.0328 280.21 53.1266 279.932 53.1266 279.614C53.1266 279.324 53.0456 279.088 52.8837 278.906C52.7218 278.724 52.5087 278.577 52.2445 278.463C51.9803 278.349 51.6948 278.25 51.388 278.165L50.3141 277.858C49.6323 277.662 49.0925 277.382 48.6948 277.018C48.2971 276.655 48.0982 276.179 48.0982 275.591C48.0982 275.102 48.2303 274.676 48.4945 274.312C48.7615 273.946 49.1195 273.662 49.5684 273.46C50.0201 273.256 50.5243 273.153 51.0811 273.153C51.6436 273.153 52.1436 273.254 52.5811 273.456C53.0186 273.655 53.3652 273.928 53.6209 274.274C53.8794 274.621 54.0158 275.014 54.03 275.455H53.0073ZM59.8755 279.324V275.455H60.8812V282H59.8755V280.892H59.8074C59.6539 281.224 59.4153 281.507 59.0914 281.74C58.7676 281.97 58.3585 282.085 57.8642 282.085C57.4551 282.085 57.0914 281.996 56.7733 281.817C56.4551 281.635 56.2051 281.362 56.0233 280.999C55.8414 280.632 55.7505 280.17 55.7505 279.614V275.455H56.7562V279.545C56.7562 280.023 56.8897 280.403 57.1568 280.688C57.4267 280.972 57.7704 281.114 58.188 281.114C58.438 281.114 58.6923 281.05 58.9508 280.922C59.2122 280.794 59.4309 280.598 59.6071 280.334C59.786 280.07 59.8755 279.733 59.8755 279.324ZM63.7289 278.062V282H62.7232V275.455H63.6948V276.477H63.78C63.9334 276.145 64.1664 275.878 64.4789 275.676C64.7914 275.472 65.1948 275.369 65.6891 275.369C66.1323 275.369 66.5201 275.46 66.8525 275.642C67.1848 275.821 67.4434 276.094 67.628 276.46C67.8127 276.824 67.905 277.284 67.905 277.841V282H66.8993V277.909C66.8993 277.395 66.7658 276.994 66.4988 276.707C66.2317 276.418 65.8652 276.273 65.3993 276.273C65.0783 276.273 64.7914 276.342 64.5385 276.482C64.2885 276.621 64.0911 276.824 63.9462 277.091C63.8013 277.358 63.7289 277.682 63.7289 278.062Z" fill="#9D9FA2"/>
<path d="M91.7957 273.273H93.0571L96.023 280.517H96.1253L99.0912 273.273H100.353V282H99.3639V275.369H99.2787L96.5514 282H95.5968L92.8696 275.369H92.7843V282H91.7957V273.273ZM104.994 282.136C104.403 282.136 103.885 281.996 103.439 281.714C102.996 281.433 102.649 281.04 102.399 280.534C102.152 280.028 102.028 279.437 102.028 278.761C102.028 278.08 102.152 277.484 102.399 276.976C102.649 276.467 102.996 276.072 103.439 275.791C103.885 275.51 104.403 275.369 104.994 275.369C105.585 275.369 106.102 275.51 106.545 275.791C106.991 276.072 107.338 276.467 107.585 276.976C107.835 277.484 107.96 278.08 107.96 278.761C107.96 279.437 107.835 280.028 107.585 280.534C107.338 281.04 106.991 281.433 106.545 281.714C106.102 281.996 105.585 282.136 104.994 282.136ZM104.994 281.233C105.443 281.233 105.812 281.118 106.102 280.888C106.392 280.658 106.606 280.355 106.746 279.98C106.885 279.605 106.954 279.199 106.954 278.761C106.954 278.324 106.885 277.916 106.746 277.538C106.606 277.161 106.392 276.855 106.102 276.622C105.812 276.389 105.443 276.273 104.994 276.273C104.545 276.273 104.176 276.389 103.886 276.622C103.596 276.855 103.382 277.161 103.243 277.538C103.104 277.916 103.034 278.324 103.034 278.761C103.034 279.199 103.104 279.605 103.243 279.98C103.382 280.355 103.596 280.658 103.886 280.888C104.176 281.118 104.545 281.233 104.994 281.233ZM110.501 278.062V282H109.495V275.455H110.467V276.477H110.552C110.706 276.145 110.938 275.878 111.251 275.676C111.563 275.472 111.967 275.369 112.461 275.369C112.904 275.369 113.292 275.46 113.625 275.642C113.957 275.821 114.215 276.094 114.4 276.46C114.585 276.824 114.677 277.284 114.677 277.841V282H113.671V277.909C113.671 277.395 113.538 276.994 113.271 276.707C113.004 276.418 112.637 276.273 112.171 276.273C111.85 276.273 111.563 276.342 111.311 276.482C111.061 276.621 110.863 276.824 110.718 277.091C110.573 277.358 110.501 277.682 110.501 278.062Z" fill="#9D9FA2"/>
<path d="M138.03 274.21V273.273H144.576V274.21H141.831V282H140.774V274.21H138.03ZM149.305 279.324V275.455H150.31V282H149.305V280.892H149.236C149.083 281.224 148.844 281.507 148.521 281.74C148.197 281.97 147.788 282.085 147.293 282.085C146.884 282.085 146.521 281.996 146.202 281.817C145.884 281.635 145.634 281.362 145.452 280.999C145.271 280.632 145.18 280.17 145.18 279.614V275.455H146.185V279.545C146.185 280.023 146.319 280.403 146.586 280.688C146.856 280.972 147.199 281.114 147.617 281.114C147.867 281.114 148.121 281.05 148.38 280.922C148.641 280.794 148.86 280.598 149.036 280.334C149.215 280.07 149.305 279.733 149.305 279.324ZM154.897 282.136C154.266 282.136 153.722 281.997 153.264 281.719C152.81 281.438 152.459 281.045 152.212 280.543C151.968 280.037 151.845 279.449 151.845 278.778C151.845 278.108 151.968 277.517 152.212 277.006C152.459 276.491 152.803 276.091 153.243 275.804C153.686 275.514 154.203 275.369 154.794 275.369C155.135 275.369 155.472 275.426 155.804 275.54C156.137 275.653 156.439 275.838 156.712 276.094C156.985 276.347 157.202 276.682 157.364 277.099C157.526 277.517 157.607 278.031 157.607 278.642V279.068H152.561V278.199H156.584C156.584 277.83 156.51 277.5 156.362 277.21C156.218 276.92 156.01 276.692 155.74 276.524C155.473 276.357 155.158 276.273 154.794 276.273C154.394 276.273 154.047 276.372 153.755 276.571C153.465 276.767 153.242 277.023 153.086 277.338C152.929 277.653 152.851 277.991 152.851 278.352V278.932C152.851 279.426 152.936 279.845 153.107 280.189C153.28 280.53 153.52 280.79 153.827 280.969C154.134 281.145 154.49 281.233 154.897 281.233C155.161 281.233 155.399 281.196 155.612 281.122C155.828 281.045 156.014 280.932 156.171 280.781C156.327 280.628 156.448 280.437 156.533 280.21L157.505 280.483C157.402 280.812 157.23 281.102 156.989 281.352C156.747 281.599 156.449 281.793 156.094 281.932C155.739 282.068 155.34 282.136 154.897 282.136Z" fill="#9D9FA2"/>
<path d="M183.033 282L180.646 273.273H181.72L183.544 280.381H183.629L185.487 273.273H186.68L188.538 280.381H188.624L190.447 273.273H191.521L189.135 282H188.044L186.118 275.045H186.05L184.124 282H183.033ZM194.837 282.136C194.206 282.136 193.662 281.997 193.205 281.719C192.75 281.438 192.399 281.045 192.152 280.543C191.908 280.037 191.786 279.449 191.786 278.778C191.786 278.108 191.908 277.517 192.152 277.006C192.399 276.491 192.743 276.091 193.183 275.804C193.626 275.514 194.143 275.369 194.734 275.369C195.075 275.369 195.412 275.426 195.744 275.54C196.077 275.653 196.379 275.838 196.652 276.094C196.925 276.347 197.142 276.682 197.304 277.099C197.466 277.517 197.547 278.031 197.547 278.642V279.068H192.501V278.199H196.524C196.524 277.83 196.45 277.5 196.303 277.21C196.158 276.92 195.95 276.692 195.68 276.524C195.413 276.357 195.098 276.273 194.734 276.273C194.334 276.273 193.987 276.372 193.695 276.571C193.405 276.767 193.182 277.023 193.026 277.338C192.869 277.653 192.791 277.991 192.791 278.352V278.932C192.791 279.426 192.876 279.845 193.047 280.189C193.22 280.53 193.46 280.79 193.767 280.969C194.074 281.145 194.43 281.233 194.837 281.233C195.101 281.233 195.339 281.196 195.553 281.122C195.768 281.045 195.955 280.932 196.111 280.781C196.267 280.628 196.388 280.437 196.473 280.21L197.445 280.483C197.342 280.812 197.17 281.102 196.929 281.352C196.688 281.599 196.389 281.793 196.034 281.932C195.679 282.068 195.28 282.136 194.837 282.136ZM201.548 282.136C201.003 282.136 200.521 281.999 200.104 281.723C199.686 281.445 199.359 281.053 199.124 280.547C198.888 280.038 198.77 279.438 198.77 278.744C198.77 278.057 198.888 277.46 199.124 276.955C199.359 276.449 199.688 276.058 200.108 275.783C200.528 275.507 201.014 275.369 201.565 275.369C201.991 275.369 202.328 275.44 202.575 275.582C202.825 275.722 203.016 275.881 203.146 276.06C203.28 276.236 203.384 276.381 203.457 276.494H203.543V273.273H204.548V282H203.577V280.994H203.457C203.384 281.114 203.278 281.264 203.142 281.446C203.006 281.625 202.811 281.786 202.558 281.928C202.305 282.067 201.969 282.136 201.548 282.136ZM201.685 281.233C202.088 281.233 202.429 281.128 202.707 280.918C202.986 280.705 203.197 280.411 203.342 280.036C203.487 279.658 203.56 279.222 203.56 278.727C203.56 278.239 203.489 277.811 203.347 277.445C203.205 277.075 202.994 276.788 202.716 276.584C202.438 276.376 202.094 276.273 201.685 276.273C201.259 276.273 200.903 276.382 200.619 276.601C200.338 276.817 200.126 277.111 199.984 277.483C199.845 277.852 199.776 278.267 199.776 278.727C199.776 279.193 199.847 279.616 199.989 279.997C200.134 280.375 200.347 280.676 200.628 280.901C200.912 281.122 201.264 281.233 201.685 281.233Z" fill="#9D9FA2"/>
<path d="M228.365 274.21V273.273H234.911V274.21H232.166V282H231.11V274.21H228.365ZM237.411 278.062V282H236.405V273.273H237.411V276.477H237.496C237.65 276.139 237.88 275.871 238.187 275.672C238.496 275.47 238.908 275.369 239.422 275.369C239.869 275.369 240.259 275.459 240.594 275.638C240.93 275.814 241.19 276.085 241.374 276.452C241.562 276.815 241.655 277.278 241.655 277.841V282H240.65V277.909C240.65 277.389 240.515 276.987 240.245 276.703C239.978 276.416 239.607 276.273 239.133 276.273C238.803 276.273 238.508 276.342 238.246 276.482C237.988 276.621 237.783 276.824 237.633 277.091C237.485 277.358 237.411 277.682 237.411 278.062ZM247.62 279.324V275.455H248.626V282H247.62V280.892H247.552C247.399 281.224 247.16 281.507 246.836 281.74C246.512 281.97 246.103 282.085 245.609 282.085C245.2 282.085 244.836 281.996 244.518 281.817C244.2 281.635 243.95 281.362 243.768 280.999C243.586 280.632 243.495 280.17 243.495 279.614V275.455H244.501V279.545C244.501 280.023 244.634 280.403 244.902 280.688C245.171 280.972 245.515 281.114 245.933 281.114C246.183 281.114 246.437 281.05 246.696 280.922C246.957 280.794 247.176 280.598 247.352 280.334C247.531 280.07 247.62 279.733 247.62 279.324Z" fill="#9D9FA2"/>
<path d="M272.748 282V273.273H277.981V274.21H273.804V277.159H277.589V278.097H273.804V282H272.748ZM279.584 282V275.455H280.555V276.443H280.624C280.743 276.119 280.959 275.857 281.271 275.655C281.584 275.453 281.936 275.352 282.328 275.352C282.402 275.352 282.494 275.354 282.605 275.357C282.716 275.359 282.8 275.364 282.857 275.369V276.392C282.823 276.384 282.744 276.371 282.622 276.354C282.503 276.334 282.377 276.324 282.243 276.324C281.925 276.324 281.641 276.391 281.391 276.524C281.144 276.655 280.948 276.837 280.803 277.07C280.661 277.3 280.59 277.562 280.59 277.858V282H279.584ZM284.049 282V275.455H285.054V282H284.049ZM284.56 274.364C284.364 274.364 284.195 274.297 284.053 274.163C283.914 274.03 283.844 273.869 283.844 273.682C283.844 273.494 283.914 273.334 284.053 273.2C284.195 273.067 284.364 273 284.56 273C284.756 273 284.924 273.067 285.063 273.2C285.205 273.334 285.276 273.494 285.276 273.682C285.276 273.869 285.205 274.03 285.063 274.163C284.924 274.297 284.756 274.364 284.56 274.364Z" fill="#9D9FA2"/>
<path d="M313.943 275.455C313.892 275.023 313.684 274.688 313.321 274.449C312.957 274.21 312.511 274.091 311.983 274.091C311.596 274.091 311.258 274.153 310.968 274.278C310.681 274.403 310.457 274.575 310.295 274.794C310.136 275.013 310.056 275.261 310.056 275.54C310.056 275.773 310.112 275.973 310.223 276.141C310.336 276.305 310.481 276.443 310.657 276.554C310.833 276.662 311.018 276.751 311.211 276.822C311.404 276.891 311.582 276.946 311.744 276.989L312.63 277.227C312.858 277.287 313.11 277.369 313.389 277.474C313.67 277.58 313.939 277.723 314.194 277.905C314.453 278.084 314.666 278.314 314.833 278.595C315.001 278.876 315.085 279.222 315.085 279.631C315.085 280.102 314.961 280.528 314.714 280.909C314.47 281.29 314.112 281.592 313.64 281.817C313.172 282.041 312.602 282.153 311.931 282.153C311.306 282.153 310.765 282.053 310.308 281.851C309.853 281.649 309.495 281.368 309.234 281.007C308.975 280.646 308.829 280.227 308.795 279.75H309.886C309.914 280.08 310.025 280.352 310.218 280.568C310.414 280.781 310.662 280.94 310.96 281.045C311.261 281.148 311.585 281.199 311.931 281.199C312.335 281.199 312.697 281.134 313.018 281.003C313.339 280.869 313.593 280.685 313.781 280.449C313.968 280.21 314.062 279.932 314.062 279.614C314.062 279.324 313.981 279.088 313.819 278.906C313.657 278.724 313.444 278.577 313.18 278.463C312.916 278.349 312.63 278.25 312.324 278.165L311.25 277.858C310.568 277.662 310.028 277.382 309.63 277.018C309.233 276.655 309.034 276.179 309.034 275.591C309.034 275.102 309.166 274.676 309.43 274.312C309.697 273.946 310.055 273.662 310.504 273.46C310.956 273.256 311.46 273.153 312.017 273.153C312.579 273.153 313.079 273.254 313.517 273.456C313.954 273.655 314.301 273.928 314.556 274.274C314.815 274.621 314.951 275.014 314.966 275.455H313.943ZM318.612 282.153C318.197 282.153 317.821 282.075 317.483 281.919C317.145 281.76 316.876 281.531 316.678 281.233C316.479 280.932 316.379 280.568 316.379 280.142C316.379 279.767 316.453 279.463 316.601 279.23C316.749 278.994 316.946 278.81 317.193 278.676C317.44 278.543 317.713 278.443 318.011 278.378C318.313 278.31 318.615 278.256 318.919 278.216C319.317 278.165 319.639 278.126 319.886 278.101C320.136 278.072 320.318 278.026 320.432 277.96C320.548 277.895 320.607 277.781 320.607 277.619V277.585C320.607 277.165 320.491 276.838 320.261 276.605C320.034 276.372 319.689 276.256 319.226 276.256C318.746 276.256 318.369 276.361 318.097 276.571C317.824 276.781 317.632 277.006 317.521 277.244L316.567 276.903C316.737 276.506 316.964 276.196 317.249 275.974C317.536 275.75 317.848 275.594 318.186 275.506C318.527 275.415 318.862 275.369 319.192 275.369C319.402 275.369 319.643 275.395 319.916 275.446C320.192 275.494 320.457 275.595 320.713 275.749C320.972 275.902 321.186 276.134 321.357 276.443C321.527 276.753 321.612 277.168 321.612 277.688V282H320.607V281.114H320.555C320.487 281.256 320.374 281.408 320.214 281.57C320.055 281.732 319.844 281.869 319.58 281.983C319.315 282.097 318.993 282.153 318.612 282.153ZM318.766 281.25C319.163 281.25 319.499 281.172 319.771 281.016C320.047 280.859 320.254 280.658 320.393 280.411C320.536 280.163 320.607 279.903 320.607 279.631V278.71C320.564 278.761 320.47 278.808 320.325 278.851C320.183 278.891 320.018 278.926 319.831 278.957C319.646 278.986 319.466 279.011 319.29 279.034C319.116 279.054 318.976 279.071 318.868 279.085C318.607 279.119 318.362 279.175 318.135 279.251C317.911 279.325 317.729 279.437 317.589 279.588C317.453 279.736 317.385 279.937 317.385 280.193C317.385 280.543 317.514 280.807 317.773 280.986C318.034 281.162 318.365 281.25 318.766 281.25ZM326.294 275.455V276.307H322.902V275.455H326.294ZM323.891 273.886H324.897V280.125C324.897 280.409 324.938 280.622 325.02 280.764C325.105 280.903 325.213 280.997 325.344 281.045C325.478 281.091 325.618 281.114 325.766 281.114C325.877 281.114 325.968 281.108 326.039 281.097C326.11 281.082 326.167 281.071 326.209 281.062L326.414 281.966C326.346 281.991 326.25 282.017 326.128 282.043C326.006 282.071 325.851 282.085 325.664 282.085C325.38 282.085 325.101 282.024 324.828 281.902C324.559 281.78 324.334 281.594 324.155 281.344C323.979 281.094 323.891 280.778 323.891 280.398V273.886Z" fill="#9D9FA2"/>
<path d="M47 136.467C54.589 131.132 101.65 147.139 110.969 126.576C122.617 100.872 131.84 18.3263 142.337 64.69C153.591 114.404 172.621 -41.8767 188.22 14.4136C195.267 39.8459 210.446 118.038 225.431 118.038C237.608 118.038 237.591 44.4106 261.947 44.4106C286.302 44.4106 284.113 136.467 327 136.467" stroke="#20C997" stroke-width="3"/>
<path d="M110.969 126.576C101.65 147.139 54.589 131.132 47 136.467V242H327V136.467C284.113 136.467 286.302 44.4106 261.947 44.4106C237.591 44.4106 237.608 118.038 225.431 118.038C210.446 118.038 195.267 39.8459 188.22 14.4136C172.621 -41.8767 153.591 114.404 142.337 64.69C131.84 18.3263 122.617 100.872 110.969 126.576Z" fill="url(#paint0_linear_1_589)"/>
<path d="M80.9552 117.52C71.7612 133.621 54.4876 146.001 47 150.178V242H327V93.9769C284.687 93.9769 284.164 190.43 260.134 190.43C236.104 190.43 235.06 86.5901 223.045 86.5901C211.03 86.5901 214.164 165.367 186.478 161.95C158.791 158.532 145.209 124.735 128.493 93.9769C111.776 63.2183 92.4478 97.3945 80.9552 117.52Z" fill="url(#paint1_linear_1_589)"/>
<path d="M47 150.178C54.4876 146.001 71.7612 133.621 80.9552 117.52C92.4478 97.3945 111.776 63.2183 128.493 93.9769C145.209 124.735 158.791 158.532 186.478 161.95C214.164 165.367 211.03 87.0819 223.045 87.0819C235.06 87.0819 236.104 190.43 260.134 190.43C284.164 190.43 284.687 93.9769 327 93.9769" stroke="#679CF6" stroke-width="3"/>
<defs>
<linearGradient id="paint0_linear_1_589" x1="187" y1="2" x2="187" y2="242" gradientUnits="userSpaceOnUse">
<stop stop-color="#20C997" stop-opacity="0.13"/>
<stop offset="1" stop-color="#20C997" stop-opacity="0"/>
</linearGradient>
<linearGradient id="paint1_linear_1_589" x1="187" y1="81.6724" x2="187" y2="242" gradientUnits="userSpaceOnUse">
<stop stop-color="#4285F4" stop-opacity="0.25"/>
<stop offset="1" stop-color="#4285F4" stop-opacity="0"/>
</linearGradient>
</defs>
</svg>
