<svg width="1096" height="288" viewBox="0 0 1096 288" fill="none" xmlns="http://www.w3.org/2000/svg">
<path d="M0.698864 14.2102V13.3409L4.53409 7.27273H5.16477V8.61932H4.73864L1.84091 13.2045V13.2727H7.00568V14.2102H0.698864ZM4.80682 16V13.946V13.5412V7.27273H5.8125V16H4.80682ZM11.4492 16.1193C10.8072 16.1193 10.2603 15.9446 9.80859 15.5952C9.35689 15.2429 9.01172 14.733 8.77308 14.0653C8.53445 13.3949 8.41513 12.5852 8.41513 11.6364C8.41513 10.6932 8.53445 9.88778 8.77308 9.22017C9.01456 8.54972 9.36115 8.03835 9.81286 7.68608C10.2674 7.33097 10.8129 7.15341 11.4492 7.15341C12.0856 7.15341 12.6296 7.33097 13.0813 7.68608C13.5359 8.03835 13.8825 8.54972 14.1211 9.22017C14.3626 9.88778 14.4833 10.6932 14.4833 11.6364C14.4833 12.5852 14.364 13.3949 14.1254 14.0653C13.8867 14.733 13.5415 15.2429 13.0898 15.5952C12.6381 15.9446 12.0913 16.1193 11.4492 16.1193ZM11.4492 15.1818C12.0856 15.1818 12.5799 14.875 12.9322 14.2614C13.2844 13.6477 13.4606 12.7727 13.4606 11.6364C13.4606 10.8807 13.3796 10.2372 13.2177 9.70597C13.0586 9.17472 12.8285 8.76989 12.5273 8.49148C12.229 8.21307 11.8697 8.07386 11.4492 8.07386C10.8185 8.07386 10.3256 8.38494 9.97053 9.0071C9.61541 9.62642 9.43786 10.5028 9.43786 11.6364C9.43786 12.392 9.5174 13.0341 9.67649 13.5625C9.83558 14.0909 10.0643 14.4929 10.3626 14.7685C10.6637 15.044 11.0259 15.1818 11.4492 15.1818ZM18.9492 16.1193C18.3072 16.1193 17.7603 15.9446 17.3086 15.5952C16.8569 15.2429 16.5117 14.733 16.2731 14.0653C16.0344 13.3949 15.9151 12.5852 15.9151 11.6364C15.9151 10.6932 16.0344 9.88778 16.2731 9.22017C16.5146 8.54972 16.8612 8.03835 17.3129 7.68608C17.7674 7.33097 18.3129 7.15341 18.9492 7.15341C19.5856 7.15341 20.1296 7.33097 20.5813 7.68608C21.0359 8.03835 21.3825 8.54972 21.6211 9.22017C21.8626 9.88778 21.9833 10.6932 21.9833 11.6364C21.9833 12.5852 21.864 13.3949 21.6254 14.0653C21.3867 14.733 21.0415 15.2429 20.5898 15.5952C20.1381 15.9446 19.5913 16.1193 18.9492 16.1193ZM18.9492 15.1818C19.5856 15.1818 20.0799 14.875 20.4322 14.2614C20.7844 13.6477 20.9606 12.7727 20.9606 11.6364C20.9606 10.8807 20.8796 10.2372 20.7177 9.70597C20.5586 9.17472 20.3285 8.76989 20.0273 8.49148C19.729 8.21307 19.3697 8.07386 18.9492 8.07386C18.3185 8.07386 17.8256 8.38494 17.4705 9.0071C17.1154 9.62642 16.9379 10.5028 16.9379 11.6364C16.9379 12.392 17.0174 13.0341 17.1765 13.5625C17.3356 14.0909 17.5643 14.4929 17.8626 14.7685C18.1637 15.044 18.5259 15.1818 18.9492 15.1818Z" fill="#9D9FA2"/>
<path d="M3.85227 76.1193C3.28977 76.1193 2.78835 76.0227 2.34801 75.8295C1.91051 75.6364 1.5625 75.3679 1.30398 75.0241C1.0483 74.6776 0.909091 74.2756 0.886364 73.8182H1.96023C1.98295 74.0994 2.07955 74.3423 2.25 74.5469C2.42045 74.7486 2.64347 74.9048 2.91903 75.0156C3.1946 75.1264 3.5 75.1818 3.83523 75.1818C4.21023 75.1818 4.54261 75.1165 4.83239 74.9858C5.12216 74.8551 5.34943 74.6733 5.5142 74.4403C5.67898 74.2074 5.76136 73.9375 5.76136 73.6307C5.76136 73.3097 5.68182 73.027 5.52273 72.7827C5.36364 72.5355 5.13068 72.3423 4.82386 72.2031C4.51705 72.0639 4.14205 71.9943 3.69886 71.9943H3V71.0568H3.69886C4.04545 71.0568 4.34943 70.9943 4.6108 70.8693C4.875 70.7443 5.08097 70.5682 5.22869 70.3409C5.37926 70.1136 5.45455 69.8466 5.45455 69.5398C5.45455 69.2443 5.3892 68.9872 5.25852 68.7685C5.12784 68.5497 4.94318 68.3793 4.70455 68.2571C4.46875 68.1349 4.19034 68.0739 3.86932 68.0739C3.56818 68.0739 3.28409 68.1293 3.01705 68.2401C2.75284 68.348 2.53693 68.5057 2.36932 68.7131C2.2017 68.9176 2.1108 69.1648 2.09659 69.4545H1.07386C1.09091 68.9972 1.22869 68.5966 1.48722 68.2528C1.74574 67.9062 2.08381 67.6364 2.50142 67.4432C2.92188 67.25 3.38352 67.1534 3.88636 67.1534C4.42614 67.1534 4.8892 67.2628 5.27557 67.4815C5.66193 67.6974 5.95881 67.983 6.16619 68.3381C6.37358 68.6932 6.47727 69.0767 6.47727 69.4886C6.47727 69.9801 6.34801 70.3991 6.08949 70.7457C5.83381 71.0923 5.4858 71.3324 5.04545 71.4659V71.5341C5.59659 71.625 6.02699 71.8594 6.33665 72.2372C6.64631 72.6122 6.80114 73.0767 6.80114 73.6307C6.80114 74.1051 6.67188 74.5312 6.41335 74.9091C6.15767 75.2841 5.80824 75.5795 5.36506 75.7955C4.92188 76.0114 4.41761 76.1193 3.85227 76.1193ZM11.3906 76.1193C10.7486 76.1193 10.2017 75.9446 9.75 75.5952C9.2983 75.2429 8.95313 74.733 8.71449 74.0653C8.47585 73.3949 8.35653 72.5852 8.35653 71.6364C8.35653 70.6932 8.47585 69.8878 8.71449 69.2202C8.95597 68.5497 9.30256 68.0384 9.75426 67.6861C10.2088 67.331 10.7543 67.1534 11.3906 67.1534C12.027 67.1534 12.571 67.331 13.0227 67.6861C13.4773 68.0384 13.8239 68.5497 14.0625 69.2202C14.304 69.8878 14.4247 70.6932 14.4247 71.6364C14.4247 72.5852 14.3054 73.3949 14.0668 74.0653C13.8281 74.733 13.483 75.2429 13.0312 75.5952C12.5795 75.9446 12.0327 76.1193 11.3906 76.1193ZM11.3906 75.1818C12.027 75.1818 12.5213 74.875 12.8736 74.2614C13.2259 73.6477 13.402 72.7727 13.402 71.6364C13.402 70.8807 13.321 70.2372 13.1591 69.706C13 69.1747 12.7699 68.7699 12.4688 68.4915C12.1705 68.2131 11.8111 68.0739 11.3906 68.0739C10.7599 68.0739 10.267 68.3849 9.91193 69.0071C9.55682 69.6264 9.37926 70.5028 9.37926 71.6364C9.37926 72.392 9.45881 73.0341 9.6179 73.5625C9.77699 74.0909 10.0057 74.4929 10.304 74.7685C10.6051 75.044 10.9673 75.1818 11.3906 75.1818ZM18.8906 76.1193C18.2486 76.1193 17.7017 75.9446 17.25 75.5952C16.7983 75.2429 16.4531 74.733 16.2145 74.0653C15.9759 73.3949 15.8565 72.5852 15.8565 71.6364C15.8565 70.6932 15.9759 69.8878 16.2145 69.2202C16.456 68.5497 16.8026 68.0384 17.2543 67.6861C17.7088 67.331 18.2543 67.1534 18.8906 67.1534C19.527 67.1534 20.071 67.331 20.5227 67.6861C20.9773 68.0384 21.3239 68.5497 21.5625 69.2202C21.804 69.8878 21.9247 70.6932 21.9247 71.6364C21.9247 72.5852 21.8054 73.3949 21.5668 74.0653C21.3281 74.733 20.983 75.2429 20.5312 75.5952C20.0795 75.9446 19.5327 76.1193 18.8906 76.1193ZM18.8906 75.1818C19.527 75.1818 20.0213 74.875 20.3736 74.2614C20.7259 73.6477 20.902 72.7727 20.902 71.6364C20.902 70.8807 20.821 70.2372 20.6591 69.706C20.5 69.1747 20.2699 68.7699 19.9688 68.4915C19.6705 68.2131 19.3111 68.0739 18.8906 68.0739C18.2599 68.0739 17.767 68.3849 17.4119 69.0071C17.0568 69.6264 16.8793 70.5028 16.8793 71.6364C16.8793 72.392 16.9588 73.0341 17.1179 73.5625C17.277 74.0909 17.5057 74.4929 17.804 74.7685C18.1051 75.044 18.4673 75.1818 18.8906 75.1818Z" fill="#9D9FA2"/>
<path d="M0.903409 136V135.233L3.78409 132.08C4.12216 131.71 4.40057 131.389 4.61932 131.116C4.83807 130.841 5 130.582 5.10511 130.341C5.21307 130.097 5.26705 129.841 5.26705 129.574C5.26705 129.267 5.19318 129.001 5.04545 128.777C4.90057 128.553 4.7017 128.379 4.44886 128.257C4.19602 128.135 3.91193 128.074 3.59659 128.074C3.26136 128.074 2.96875 128.143 2.71875 128.283C2.47159 128.419 2.27983 128.611 2.14347 128.858C2.00994 129.105 1.94318 129.395 1.94318 129.727H0.9375C0.9375 129.216 1.0554 128.767 1.29119 128.381C1.52699 127.994 1.84801 127.693 2.25426 127.477C2.66335 127.261 3.12216 127.153 3.63068 127.153C4.14205 127.153 4.59517 127.261 4.99006 127.477C5.38494 127.693 5.6946 127.984 5.91903 128.351C6.14347 128.717 6.25568 129.125 6.25568 129.574C6.25568 129.895 6.19744 130.209 6.08097 130.516C5.96733 130.82 5.76847 131.159 5.48438 131.534C5.20312 131.906 4.8125 132.361 4.3125 132.898L2.35227 134.994V135.062H6.40909V136H0.903409ZM11.0156 136.119C10.3736 136.119 9.8267 135.945 9.375 135.595C8.9233 135.243 8.57813 134.733 8.33949 134.065C8.10085 133.395 7.98153 132.585 7.98153 131.636C7.98153 130.693 8.10085 129.888 8.33949 129.22C8.58097 128.55 8.92756 128.038 9.37926 127.686C9.83381 127.331 10.3793 127.153 11.0156 127.153C11.652 127.153 12.196 127.331 12.6477 127.686C13.1023 128.038 13.4489 128.55 13.6875 129.22C13.929 129.888 14.0497 130.693 14.0497 131.636C14.0497 132.585 13.9304 133.395 13.6918 134.065C13.4531 134.733 13.108 135.243 12.6562 135.595C12.2045 135.945 11.6577 136.119 11.0156 136.119ZM11.0156 135.182C11.652 135.182 12.1463 134.875 12.4986 134.261C12.8509 133.648 13.027 132.773 13.027 131.636C13.027 130.881 12.946 130.237 12.7841 129.706C12.625 129.175 12.3949 128.77 12.0938 128.491C11.7955 128.213 11.4361 128.074 11.0156 128.074C10.3849 128.074 9.89205 128.385 9.53693 129.007C9.18182 129.626 9.00426 130.503 9.00426 131.636C9.00426 132.392 9.08381 133.034 9.2429 133.562C9.40199 134.091 9.63068 134.493 9.92898 134.768C10.2301 135.044 10.5923 135.182 11.0156 135.182ZM18.5156 136.119C17.8736 136.119 17.3267 135.945 16.875 135.595C16.4233 135.243 16.0781 134.733 15.8395 134.065C15.6009 133.395 15.4815 132.585 15.4815 131.636C15.4815 130.693 15.6009 129.888 15.8395 129.22C16.081 128.55 16.4276 128.038 16.8793 127.686C17.3338 127.331 17.8793 127.153 18.5156 127.153C19.152 127.153 19.696 127.331 20.1477 127.686C20.6023 128.038 20.9489 128.55 21.1875 129.22C21.429 129.888 21.5497 130.693 21.5497 131.636C21.5497 132.585 21.4304 133.395 21.1918 134.065C20.9531 134.733 20.608 135.243 20.1562 135.595C19.7045 135.945 19.1577 136.119 18.5156 136.119ZM18.5156 135.182C19.152 135.182 19.6463 134.875 19.9986 134.261C20.3509 133.648 20.527 132.773 20.527 131.636C20.527 130.881 20.446 130.237 20.2841 129.706C20.125 129.175 19.8949 128.77 19.5938 128.491C19.2955 128.213 18.9361 128.074 18.5156 128.074C17.8849 128.074 17.392 128.385 17.0369 129.007C16.6818 129.626 16.5043 130.503 16.5043 131.636C16.5043 132.392 16.5838 133.034 16.7429 133.562C16.902 134.091 17.1307 134.493 17.429 134.768C17.7301 135.044 18.0923 135.182 18.5156 135.182Z" fill="#9D9FA2"/>
<path d="M3.97159 187.273V196H2.91477V188.381H2.86364L0.732955 189.795V188.722L2.91477 187.273H3.97159ZM9.32812 196.119C8.68608 196.119 8.1392 195.945 7.6875 195.595C7.2358 195.243 6.89063 194.733 6.65199 194.065C6.41335 193.395 6.29403 192.585 6.29403 191.636C6.29403 190.693 6.41335 189.888 6.65199 189.22C6.89347 188.55 7.24006 188.038 7.69176 187.686C8.14631 187.331 8.69176 187.153 9.32812 187.153C9.96449 187.153 10.5085 187.331 10.9602 187.686C11.4148 188.038 11.7614 188.55 12 189.22C12.2415 189.888 12.3622 190.693 12.3622 191.636C12.3622 192.585 12.2429 193.395 12.0043 194.065C11.7656 194.733 11.4205 195.243 10.9688 195.595C10.517 195.945 9.97017 196.119 9.32812 196.119ZM9.32812 195.182C9.96449 195.182 10.4588 194.875 10.8111 194.261C11.1634 193.648 11.3395 192.773 11.3395 191.636C11.3395 190.881 11.2585 190.237 11.0966 189.706C10.9375 189.175 10.7074 188.77 10.4062 188.491C10.108 188.213 9.74858 188.074 9.32812 188.074C8.69744 188.074 8.20455 188.385 7.84943 189.007C7.49432 189.626 7.31676 190.503 7.31676 191.636C7.31676 192.392 7.39631 193.034 7.5554 193.562C7.71449 194.091 7.94318 194.493 8.24148 194.768C8.54261 195.044 8.90483 195.182 9.32812 195.182ZM16.8281 196.119C16.1861 196.119 15.6392 195.945 15.1875 195.595C14.7358 195.243 14.3906 194.733 14.152 194.065C13.9134 193.395 13.794 192.585 13.794 191.636C13.794 190.693 13.9134 189.888 14.152 189.22C14.3935 188.55 14.7401 188.038 15.1918 187.686C15.6463 187.331 16.1918 187.153 16.8281 187.153C17.4645 187.153 18.0085 187.331 18.4602 187.686C18.9148 188.038 19.2614 188.55 19.5 189.22C19.7415 189.888 19.8622 190.693 19.8622 191.636C19.8622 192.585 19.7429 193.395 19.5043 194.065C19.2656 194.733 18.9205 195.243 18.4688 195.595C18.017 195.945 17.4702 196.119 16.8281 196.119ZM16.8281 195.182C17.4645 195.182 17.9588 194.875 18.3111 194.261C18.6634 193.648 18.8395 192.773 18.8395 191.636C18.8395 190.881 18.7585 190.237 18.5966 189.706C18.4375 189.175 18.2074 188.77 17.9062 188.491C17.608 188.213 17.2486 188.074 16.8281 188.074C16.1974 188.074 15.7045 188.385 15.3494 189.007C14.9943 189.626 14.8168 190.503 14.8168 191.636C14.8168 192.392 14.8963 193.034 15.0554 193.562C15.2145 194.091 15.4432 194.493 15.7415 194.768C16.0426 195.044 16.4048 195.182 16.8281 195.182Z" fill="#9D9FA2"/>
<path d="M3.75 256.119C3.10795 256.119 2.56108 255.945 2.10938 255.595C1.65767 255.243 1.3125 254.733 1.07386 254.065C0.835227 253.395 0.715909 252.585 0.715909 251.636C0.715909 250.693 0.835227 249.888 1.07386 249.22C1.31534 248.55 1.66193 248.038 2.11364 247.686C2.56818 247.331 3.11364 247.153 3.75 247.153C4.38636 247.153 4.9304 247.331 5.3821 247.686C5.83665 248.038 6.18324 248.55 6.42188 249.22C6.66335 249.888 6.78409 250.693 6.78409 251.636C6.78409 252.585 6.66477 253.395 6.42614 254.065C6.1875 254.733 5.84233 255.243 5.39062 255.595C4.93892 255.945 4.39205 256.119 3.75 256.119ZM3.75 255.182C4.38636 255.182 4.88068 254.875 5.23295 254.261C5.58523 253.648 5.76136 252.773 5.76136 251.636C5.76136 250.881 5.6804 250.237 5.51847 249.706C5.35938 249.175 5.12926 248.77 4.82812 248.491C4.52983 248.213 4.17045 248.074 3.75 248.074C3.11932 248.074 2.62642 248.385 2.27131 249.007C1.91619 249.626 1.73864 250.503 1.73864 251.636C1.73864 252.392 1.81818 253.034 1.97727 253.562C2.13636 254.091 2.36506 254.493 2.66335 254.768C2.96449 255.044 3.3267 255.182 3.75 255.182Z" fill="#9D9FA2"/>
<path d="M59.0073 275.455C58.9561 275.023 58.7488 274.688 58.3851 274.449C58.0215 274.21 57.5755 274.091 57.0471 274.091C56.6607 274.091 56.3226 274.153 56.0328 274.278C55.7459 274.403 55.5215 274.575 55.3596 274.794C55.2005 275.013 55.1209 275.261 55.1209 275.54C55.1209 275.773 55.1763 275.973 55.2871 276.141C55.4007 276.305 55.5456 276.443 55.7218 276.554C55.8979 276.662 56.0826 276.751 56.2757 276.822C56.4689 276.891 56.6465 276.946 56.8084 276.989L57.6948 277.227C57.9221 277.287 58.1749 277.369 58.4533 277.474C58.7346 277.58 59.003 277.723 59.2587 277.905C59.5172 278.084 59.7303 278.314 59.8979 278.595C60.0655 278.876 60.1493 279.222 60.1493 279.631C60.1493 280.102 60.0257 280.528 59.7786 280.909C59.5343 281.29 59.1763 281.592 58.7047 281.817C58.236 282.041 57.6664 282.153 56.9959 282.153C56.3709 282.153 55.8297 282.053 55.3723 281.851C54.9178 281.649 54.5598 281.368 54.2985 281.007C54.04 280.646 53.8936 280.227 53.8596 279.75H54.9505C54.9789 280.08 55.0897 280.352 55.2828 280.568C55.4789 280.781 55.726 280.94 56.0243 281.045C56.3255 281.148 56.6493 281.199 56.9959 281.199C57.3993 281.199 57.7615 281.134 58.0826 281.003C58.4036 280.869 58.6578 280.685 58.8453 280.449C59.0328 280.21 59.1266 279.932 59.1266 279.614C59.1266 279.324 59.0456 279.088 58.8837 278.906C58.7218 278.724 58.5087 278.577 58.2445 278.463C57.9803 278.349 57.6948 278.25 57.388 278.165L56.3141 277.858C55.6323 277.662 55.0925 277.382 54.6948 277.018C54.2971 276.655 54.0982 276.179 54.0982 275.591C54.0982 275.102 54.2303 274.676 54.4945 274.312C54.7615 273.946 55.1195 273.662 55.5684 273.46C56.0201 273.256 56.5243 273.153 57.0811 273.153C57.6436 273.153 58.1436 273.254 58.5811 273.456C59.0186 273.655 59.3652 273.928 59.6209 274.274C59.8794 274.621 60.0158 275.014 60.03 275.455H59.0073ZM65.8755 279.324V275.455H66.8812V282H65.8755V280.892H65.8074C65.6539 281.224 65.4153 281.507 65.0914 281.74C64.7676 281.97 64.3585 282.085 63.8642 282.085C63.4551 282.085 63.0914 281.996 62.7733 281.817C62.4551 281.635 62.2051 281.362 62.0233 280.999C61.8414 280.632 61.7505 280.17 61.7505 279.614V275.455H62.7562V279.545C62.7562 280.023 62.8897 280.403 63.1568 280.688C63.4267 280.972 63.7704 281.114 64.188 281.114C64.438 281.114 64.6923 281.05 64.9508 280.922C65.2122 280.794 65.4309 280.598 65.6071 280.334C65.786 280.07 65.8755 279.733 65.8755 279.324ZM69.7289 278.062V282H68.7232V275.455H69.6948V276.477H69.78C69.9334 276.145 70.1664 275.878 70.4789 275.676C70.7914 275.472 71.1948 275.369 71.6891 275.369C72.1323 275.369 72.5201 275.46 72.8525 275.642C73.1848 275.821 73.4434 276.094 73.628 276.46C73.8127 276.824 73.905 277.284 73.905 277.841V282H72.8993V277.909C72.8993 277.395 72.7658 276.994 72.4988 276.707C72.2317 276.418 71.8652 276.273 71.3993 276.273C71.0783 276.273 70.7914 276.342 70.5385 276.482C70.2885 276.621 70.0911 276.824 69.9462 277.091C69.8013 277.358 69.7289 277.682 69.7289 278.062Z" fill="#9D9FA2"/>
<path d="M224.962 273.273H226.224L229.19 280.517H229.292L232.258 273.273H233.519V282H232.531V275.369H232.445L229.718 282H228.764L226.036 275.369H225.951V282H224.962V273.273ZM238.161 282.136C237.57 282.136 237.052 281.996 236.606 281.714C236.162 281.433 235.816 281.04 235.566 280.534C235.319 280.028 235.195 279.437 235.195 278.761C235.195 278.08 235.319 277.484 235.566 276.976C235.816 276.467 236.162 276.072 236.606 275.791C237.052 275.51 237.57 275.369 238.161 275.369C238.752 275.369 239.269 275.51 239.712 275.791C240.158 276.072 240.505 276.467 240.752 276.976C241.002 277.484 241.127 278.08 241.127 278.761C241.127 279.437 241.002 280.028 240.752 280.534C240.505 281.04 240.158 281.433 239.712 281.714C239.269 281.996 238.752 282.136 238.161 282.136ZM238.161 281.233C238.61 281.233 238.979 281.118 239.269 280.888C239.559 280.658 239.773 280.355 239.912 279.98C240.052 279.605 240.121 279.199 240.121 278.761C240.121 278.324 240.052 277.916 239.912 277.538C239.773 277.161 239.559 276.855 239.269 276.622C238.979 276.389 238.61 276.273 238.161 276.273C237.712 276.273 237.343 276.389 237.053 276.622C236.763 276.855 236.549 277.161 236.409 277.538C236.27 277.916 236.201 278.324 236.201 278.761C236.201 279.199 236.27 279.605 236.409 279.98C236.549 280.355 236.763 280.658 237.053 280.888C237.343 281.118 237.712 281.233 238.161 281.233ZM243.668 278.062V282H242.662V275.455H243.634V276.477H243.719C243.872 276.145 244.105 275.878 244.418 275.676C244.73 275.472 245.134 275.369 245.628 275.369C246.071 275.369 246.459 275.46 246.791 275.642C247.124 275.821 247.382 276.094 247.567 276.46C247.751 276.824 247.844 277.284 247.844 277.841V282H246.838V277.909C246.838 277.395 246.705 276.994 246.438 276.707C246.17 276.418 245.804 276.273 245.338 276.273C245.017 276.273 244.73 276.342 244.477 276.482C244.227 276.621 244.03 276.824 243.885 277.091C243.74 277.358 243.668 277.682 243.668 278.062Z" fill="#9D9FA2"/>
<path d="M398.363 274.21V273.273H404.909V274.21H402.164V282H401.108V274.21H398.363ZM409.638 279.324V275.455H410.644V282H409.638V280.892H409.57C409.416 281.224 409.178 281.507 408.854 281.74C408.53 281.97 408.121 282.085 407.626 282.085C407.217 282.085 406.854 281.996 406.536 281.817C406.217 281.635 405.967 281.362 405.786 280.999C405.604 280.632 405.513 280.17 405.513 279.614V275.455H406.519V279.545C406.519 280.023 406.652 280.403 406.919 280.688C407.189 280.972 407.533 281.114 407.95 281.114C408.2 281.114 408.455 281.05 408.713 280.922C408.975 280.794 409.193 280.598 409.369 280.334C409.548 280.07 409.638 279.733 409.638 279.324ZM415.23 282.136C414.599 282.136 414.055 281.997 413.598 281.719C413.143 281.438 412.792 281.045 412.545 280.543C412.301 280.037 412.179 279.449 412.179 278.778C412.179 278.108 412.301 277.517 412.545 277.006C412.792 276.491 413.136 276.091 413.576 275.804C414.02 275.514 414.537 275.369 415.128 275.369C415.468 275.369 415.805 275.426 416.138 275.54C416.47 275.653 416.772 275.838 417.045 276.094C417.318 276.347 417.535 276.682 417.697 277.099C417.859 277.517 417.94 278.031 417.94 278.642V279.068H412.895V278.199H416.917C416.917 277.83 416.843 277.5 416.696 277.21C416.551 276.92 416.343 276.692 416.074 276.524C415.807 276.357 415.491 276.273 415.128 276.273C414.727 276.273 414.38 276.372 414.088 276.571C413.798 276.767 413.575 277.023 413.419 277.338C413.263 277.653 413.184 277.991 413.184 278.352V278.932C413.184 279.426 413.27 279.845 413.44 280.189C413.613 280.53 413.853 280.79 414.16 280.969C414.467 281.145 414.824 281.233 415.23 281.233C415.494 281.233 415.733 281.196 415.946 281.122C416.162 281.045 416.348 280.932 416.504 280.781C416.66 280.628 416.781 280.437 416.866 280.21L417.838 280.483C417.736 280.812 417.564 281.102 417.322 281.352C417.081 281.599 416.782 281.793 416.427 281.932C416.072 282.068 415.673 282.136 415.23 282.136Z" fill="#9D9FA2"/>
<path d="M570.533 282L568.146 273.273H569.22L571.044 280.381H571.129L572.987 273.273H574.18L576.038 280.381H576.124L577.947 273.273H579.021L576.635 282H575.544L573.618 275.045H573.55L571.624 282H570.533ZM582.337 282.136C581.706 282.136 581.162 281.997 580.705 281.719C580.25 281.438 579.899 281.045 579.652 280.543C579.408 280.037 579.286 279.449 579.286 278.778C579.286 278.108 579.408 277.517 579.652 277.006C579.899 276.491 580.243 276.091 580.683 275.804C581.126 275.514 581.643 275.369 582.234 275.369C582.575 275.369 582.912 275.426 583.244 275.54C583.577 275.653 583.879 275.838 584.152 276.094C584.425 276.347 584.642 276.682 584.804 277.099C584.966 277.517 585.047 278.031 585.047 278.642V279.068H580.001V278.199H584.024C584.024 277.83 583.95 277.5 583.803 277.21C583.658 276.92 583.45 276.692 583.18 276.524C582.913 276.357 582.598 276.273 582.234 276.273C581.834 276.273 581.487 276.372 581.195 276.571C580.905 276.767 580.682 277.023 580.526 277.338C580.369 277.653 580.291 277.991 580.291 278.352V278.932C580.291 279.426 580.376 279.845 580.547 280.189C580.72 280.53 580.96 280.79 581.267 280.969C581.574 281.145 581.93 281.233 582.337 281.233C582.601 281.233 582.839 281.196 583.053 281.122C583.268 281.045 583.455 280.932 583.611 280.781C583.767 280.628 583.888 280.437 583.973 280.21L584.945 280.483C584.842 280.812 584.67 281.102 584.429 281.352C584.188 281.599 583.889 281.793 583.534 281.932C583.179 282.068 582.78 282.136 582.337 282.136ZM589.048 282.136C588.503 282.136 588.021 281.999 587.604 281.723C587.186 281.445 586.859 281.053 586.624 280.547C586.388 280.038 586.27 279.438 586.27 278.744C586.27 278.057 586.388 277.46 586.624 276.955C586.859 276.449 587.188 276.058 587.608 275.783C588.028 275.507 588.514 275.369 589.065 275.369C589.491 275.369 589.828 275.44 590.075 275.582C590.325 275.722 590.516 275.881 590.646 276.06C590.78 276.236 590.884 276.381 590.957 276.494H591.043V273.273H592.048V282H591.077V280.994H590.957C590.884 281.114 590.778 281.264 590.642 281.446C590.506 281.625 590.311 281.786 590.058 281.928C589.805 282.067 589.469 282.136 589.048 282.136ZM589.185 281.233C589.588 281.233 589.929 281.128 590.207 280.918C590.486 280.705 590.697 280.411 590.842 280.036C590.987 279.658 591.06 279.222 591.06 278.727C591.06 278.239 590.989 277.811 590.847 277.445C590.705 277.075 590.494 276.788 590.216 276.584C589.938 276.376 589.594 276.273 589.185 276.273C588.759 276.273 588.403 276.382 588.119 276.601C587.838 276.817 587.626 277.111 587.484 277.483C587.345 277.852 587.276 278.267 587.276 278.727C587.276 279.193 587.347 279.616 587.489 279.997C587.634 280.375 587.847 280.676 588.128 280.901C588.412 281.122 588.764 281.233 589.185 281.233Z" fill="#9D9FA2"/>
<path d="M743.032 274.21V273.273H749.577V274.21H746.833V282H745.776V274.21H743.032ZM752.078 278.062V282H751.072V273.273H752.078V276.477H752.163C752.316 276.139 752.546 275.871 752.853 275.672C753.163 275.47 753.575 275.369 754.089 275.369C754.535 275.369 754.926 275.459 755.261 275.638C755.596 275.814 755.856 276.085 756.041 276.452C756.228 276.815 756.322 277.278 756.322 277.841V282H755.316V277.909C755.316 277.389 755.181 276.987 754.912 276.703C754.645 276.416 754.274 276.273 753.799 276.273C753.47 276.273 753.174 276.342 752.913 276.482C752.654 276.621 752.45 276.824 752.299 277.091C752.152 277.358 752.078 277.682 752.078 278.062ZM762.287 279.324V275.455H763.293V282H762.287V280.892H762.219C762.065 281.224 761.827 281.507 761.503 281.74C761.179 281.97 760.77 282.085 760.276 282.085C759.866 282.085 759.503 281.996 759.185 281.817C758.866 281.635 758.616 281.362 758.435 280.999C758.253 280.632 758.162 280.17 758.162 279.614V275.455H759.168V279.545C759.168 280.023 759.301 280.403 759.568 280.688C759.838 280.972 760.182 281.114 760.599 281.114C760.849 281.114 761.104 281.05 761.362 280.922C761.624 280.794 761.842 280.598 762.018 280.334C762.197 280.07 762.287 279.733 762.287 279.324Z" fill="#9D9FA2"/>
<path d="M914.581 282V273.273H919.814V274.21H915.638V277.159H919.422V278.097H915.638V282H914.581ZM921.417 282V275.455H922.389V276.443H922.457C922.576 276.119 922.792 275.857 923.105 275.655C923.417 275.453 923.769 275.352 924.161 275.352C924.235 275.352 924.328 275.354 924.438 275.357C924.549 275.359 924.633 275.364 924.69 275.369V276.392C924.656 276.384 924.578 276.371 924.456 276.354C924.336 276.334 924.21 276.324 924.076 276.324C923.758 276.324 923.474 276.391 923.224 276.524C922.977 276.655 922.781 276.837 922.636 277.07C922.494 277.3 922.423 277.562 922.423 277.858V282H921.417ZM925.882 282V275.455H926.888V282H925.882ZM926.393 274.364C926.197 274.364 926.028 274.297 925.886 274.163C925.747 274.03 925.677 273.869 925.677 273.682C925.677 273.494 925.747 273.334 925.886 273.2C926.028 273.067 926.197 273 926.393 273C926.589 273 926.757 273.067 926.896 273.2C927.038 273.334 927.109 273.494 927.109 273.682C927.109 273.869 927.038 274.03 926.896 274.163C926.757 274.297 926.589 274.364 926.393 274.364Z" fill="#9D9FA2"/>
<path d="M1082.94 275.455C1082.89 275.023 1082.68 274.688 1082.32 274.449C1081.96 274.21 1081.51 274.091 1080.98 274.091C1080.6 274.091 1080.26 274.153 1079.97 274.278C1079.68 274.403 1079.46 274.575 1079.3 274.794C1079.14 275.013 1079.06 275.261 1079.06 275.54C1079.06 275.773 1079.11 275.973 1079.22 276.141C1079.34 276.305 1079.48 276.443 1079.66 276.554C1079.83 276.662 1080.02 276.751 1080.21 276.822C1080.4 276.891 1080.58 276.946 1080.74 276.989L1081.63 277.227C1081.86 277.287 1082.11 277.369 1082.39 277.474C1082.67 277.58 1082.94 277.723 1083.19 277.905C1083.45 278.084 1083.67 278.314 1083.83 278.595C1084 278.876 1084.08 279.222 1084.08 279.631C1084.08 280.102 1083.96 280.528 1083.71 280.909C1083.47 281.29 1083.11 281.592 1082.64 281.817C1082.17 282.041 1081.6 282.153 1080.93 282.153C1080.31 282.153 1079.77 282.053 1079.31 281.851C1078.85 281.649 1078.5 281.368 1078.23 281.007C1077.98 280.646 1077.83 280.227 1077.8 279.75H1078.89C1078.91 280.08 1079.03 280.352 1079.22 280.568C1079.41 280.781 1079.66 280.94 1079.96 281.045C1080.26 281.148 1080.58 281.199 1080.93 281.199C1081.33 281.199 1081.7 281.134 1082.02 281.003C1082.34 280.869 1082.59 280.685 1082.78 280.449C1082.97 280.21 1083.06 279.932 1083.06 279.614C1083.06 279.324 1082.98 279.088 1082.82 278.906C1082.66 278.724 1082.44 278.577 1082.18 278.463C1081.92 278.349 1081.63 278.25 1081.32 278.165L1080.25 277.858C1079.57 277.662 1079.03 277.382 1078.63 277.018C1078.23 276.655 1078.03 276.179 1078.03 275.591C1078.03 275.102 1078.17 274.676 1078.43 274.312C1078.7 273.946 1079.06 273.662 1079.5 273.46C1079.96 273.256 1080.46 273.153 1081.02 273.153C1081.58 273.153 1082.08 273.254 1082.52 273.456C1082.95 273.655 1083.3 273.928 1083.56 274.274C1083.81 274.621 1083.95 275.014 1083.97 275.455H1082.94ZM1087.61 282.153C1087.2 282.153 1086.82 282.075 1086.48 281.919C1086.14 281.76 1085.88 281.531 1085.68 281.233C1085.48 280.932 1085.38 280.568 1085.38 280.142C1085.38 279.767 1085.45 279.463 1085.6 279.23C1085.75 278.994 1085.95 278.81 1086.19 278.676C1086.44 278.543 1086.71 278.443 1087.01 278.378C1087.31 278.31 1087.62 278.256 1087.92 278.216C1088.32 278.165 1088.64 278.126 1088.89 278.101C1089.14 278.072 1089.32 278.026 1089.43 277.96C1089.55 277.895 1089.61 277.781 1089.61 277.619V277.585C1089.61 277.165 1089.49 276.838 1089.26 276.605C1089.03 276.372 1088.69 276.256 1088.23 276.256C1087.75 276.256 1087.37 276.361 1087.1 276.571C1086.82 276.781 1086.63 277.006 1086.52 277.244L1085.57 276.903C1085.74 276.506 1085.96 276.196 1086.25 275.974C1086.54 275.75 1086.85 275.594 1087.19 275.506C1087.53 275.415 1087.86 275.369 1088.19 275.369C1088.4 275.369 1088.64 275.395 1088.92 275.446C1089.19 275.494 1089.46 275.595 1089.71 275.749C1089.97 275.902 1090.19 276.134 1090.36 276.443C1090.53 276.753 1090.61 277.168 1090.61 277.688V282H1089.61V281.114H1089.56C1089.49 281.256 1089.37 281.408 1089.21 281.57C1089.06 281.732 1088.84 281.869 1088.58 281.983C1088.32 282.097 1087.99 282.153 1087.61 282.153ZM1087.77 281.25C1088.16 281.25 1088.5 281.172 1088.77 281.016C1089.05 280.859 1089.25 280.658 1089.39 280.411C1089.54 280.163 1089.61 279.903 1089.61 279.631V278.71C1089.56 278.761 1089.47 278.808 1089.33 278.851C1089.18 278.891 1089.02 278.926 1088.83 278.957C1088.65 278.986 1088.47 279.011 1088.29 279.034C1088.12 279.054 1087.98 279.071 1087.87 279.085C1087.61 279.119 1087.36 279.175 1087.13 279.251C1086.91 279.325 1086.73 279.437 1086.59 279.588C1086.45 279.736 1086.38 279.937 1086.38 280.193C1086.38 280.543 1086.51 280.807 1086.77 280.986C1087.03 281.162 1087.37 281.25 1087.77 281.25ZM1095.29 275.455V276.307H1091.9V275.455H1095.29ZM1092.89 273.886H1093.9V280.125C1093.9 280.409 1093.94 280.622 1094.02 280.764C1094.11 280.903 1094.21 280.997 1094.34 281.045C1094.48 281.091 1094.62 281.114 1094.77 281.114C1094.88 281.114 1094.97 281.108 1095.04 281.097C1095.11 281.082 1095.17 281.071 1095.21 281.062L1095.41 281.966C1095.35 281.991 1095.25 282.017 1095.13 282.043C1095.01 282.071 1094.85 282.085 1094.66 282.085C1094.38 282.085 1094.1 282.024 1093.83 281.902C1093.56 281.78 1093.33 281.594 1093.16 281.344C1092.98 281.094 1092.89 280.778 1092.89 280.398V273.886Z" fill="#9D9FA2"/>
<path d="M53 136.467C81.2692 131.132 256.573 147.139 291.285 126.576C334.674 100.872 369.03 18.3263 408.129 64.69C450.053 114.404 520.94 -41.8767 579.044 14.4136C605.295 39.8459 661.837 118.038 717.654 118.038C763.016 118.038 762.952 44.4106 853.677 44.4106C944.401 44.4106 936.246 136.467 1096 136.467" stroke="#20C997" stroke-width="3"/>
<path d="M291.285 126.576C256.573 147.139 81.2692 131.132 53 136.467V242H1096V136.467C936.246 136.467 944.401 44.4106 853.677 44.4106C762.952 44.4106 763.016 118.038 717.654 118.038C661.837 118.038 605.295 39.8459 579.044 14.4136C520.94 -41.8767 450.053 114.404 408.129 64.69C369.03 18.3263 334.674 100.872 291.285 126.576Z" fill="url(#paint0_linear_1_281)"/>
<path d="M179.483 117.52C145.235 133.621 80.8912 146.001 53 150.178V242H1096V93.9769C938.382 93.9769 936.437 190.43 846.925 190.43C757.414 190.43 753.522 86.5901 708.767 86.5901C664.011 86.5901 675.687 165.367 572.554 161.95C469.422 158.532 418.828 124.735 356.56 93.9769C294.626 63.3839 223.068 97.0283 180.177 117.194L179.483 117.52Z" fill="url(#paint1_linear_1_281)"/>
<path d="M53 150.178C80.8912 146.001 145.235 133.621 179.483 117.52C222.293 97.3945 294.291 63.2183 356.56 93.9769C418.828 124.735 469.422 158.532 572.554 161.95C675.687 165.367 664.011 87.0819 708.767 87.0819C753.522 87.0819 757.414 190.43 846.925 190.43C936.437 190.43 938.382 93.9769 1096 93.9769" stroke="#679CF6" stroke-width="3"/>
<defs>
<linearGradient id="paint0_linear_1_281" x1="574.5" y1="2" x2="574.5" y2="242" gradientUnits="userSpaceOnUse">
<stop stop-color="#20C997" stop-opacity="0.13"/>
<stop offset="1" stop-color="#20C997" stop-opacity="0"/>
</linearGradient>
<linearGradient id="paint1_linear_1_281" x1="574.5" y1="81.6724" x2="574.5" y2="242" gradientUnits="userSpaceOnUse">
<stop stop-color="#4285F4" stop-opacity="0.25"/>
<stop offset="1" stop-color="#4285F4" stop-opacity="0"/>
</linearGradient>
</defs>
</svg>
